<?xml version="1.0" standalone="no"?>
<!DOCTYPE svg PUBLIC "-//W3C//DTD SVG 20010904//EN"
 "http://www.w3.org/TR/2001/REC-SVG-20010904/DTD/svg10.dtd">
<svg version="1.0" xmlns="http://www.w3.org/2000/svg"
 width="96.000000pt" height="96.000000pt" viewBox="0 0 96.000000 96.000000"
 preserveAspectRatio="xMidYMid meet">

<g transform="translate(0.000000,96.000000) scale(0.100000,-0.100000)"
fill="#000000" stroke="none">
<path d="M457 789 c-62 -15 -112 -45 -161 -99 -134 -150 -84 -386 100 -476
143 -70 326 -7 400 137 23 46 43 129 30 129 -3 0 -23 -17 -44 -38 -102 -102
-268 -73 -334 57 -47 91 -33 169 42 243 59 60 54 68 -33 47z m11 -36 c-34 -36
-54 -78 -62 -129 -22 -128 97 -264 230 -264 43 0 113 26 141 52 35 33 36 17 2
-50 -51 -104 -136 -155 -254 -155 -118 0 -203 51 -254 155 -34 67 -42 154 -19
219 16 49 63 114 100 141 26 18 116 56 137 58 3 0 -7 -12 -21 -27z"/>
<path d="M397 734 c-43 -23 -26 -27 18 -4 22 11 33 20 25 20 -8 -1 -28 -8 -43
-16z"/>
<path d="M317 658 c-25 -33 -53 -105 -45 -114 3 -2 10 15 17 38 7 24 24 58 37
76 14 17 23 32 20 32 -3 0 -16 -15 -29 -32z"/>
<path d="M476 353 c-10 -11 -6 -23 6 -20 6 1 14 -6 16 -15 4 -22 -23 -24 -32
-3 -3 8 -10 15 -15 15 -5 0 -5 -9 2 -22 13 -29 53 -33 60 -6 6 20 -26 62 -37
51z"/>
<path d="M216 774 c-3 -7 0 -13 6 -11 7 1 14 -6 16 -15 2 -10 -2 -18 -9 -18
-6 0 -18 8 -26 18 -14 16 -14 16 -9 -1 3 -10 6 -22 6 -26 0 -4 10 -7 23 -7 31
1 41 32 18 55 -16 16 -21 17 -25 5z"/>
<path d="M570 597 c-23 -19 -14 -55 14 -53 21 1 56 46 36 46 -4 0 -10 -7 -14
-15 -8 -22 -38 -19 -34 3 2 9 10 16 16 15 7 -2 12 2 12 7 0 13 -12 12 -30 -3z"/>
</g>
</svg>
